#N canvas 82 66 520 309 10;
#X msg 80 101 ports;
#X msg 57 62 close;
#X obj 14 11 r serial.comport;
#X msg 100 62 info;
#X obj 101 236 s serial.statusport;
#X obj 14 35 select open close info;
#X obj 14 171 t a b;
#X obj 14 280 outlet sensordata;
#X obj 41 257 outlet cycletrig;
#X obj 166 102 comment 300 10 monaco ? 0 255 0 0 If you have trouble
opening the serial port \, check the output of the "ports" message
and make sure that the correct portnumber is being opened.;
#X obj 168 164 r serial.statusport;
#X obj 168 186 route ports;
#X obj 168 210 coll;
#C restore;
#X msg 133 187 open;
#X obj 80 171 t b a;
#X obj 64 127 comment 300 10 monaco ? 0 255 0 0 <---------------;
#X obj 124 101 comment 300 10 monaco ? 0 255 0 0 <-----;
#X obj 14 211 comport 5 38400;
#X msg 14 127 open 6;
#X obj 374 11 namecanvas serialport;
#X connect 0 0 14 0;
#X connect 1 0 17 0;
#X connect 2 0 5 0;
#X connect 3 0 17 0;
#X connect 5 0 18 0;
#X connect 5 1 1 0;
#X connect 5 2 3 0;
#X connect 6 0 17 0;
#X connect 6 1 8 0;
#X connect 10 0 11 0;
#X connect 11 0 12 0;
#X connect 13 0 12 0;
#X connect 14 0 13 0;
#X connect 14 1 17 0;
#X connect 17 0 7 0;
#X connect 17 1 4 0;
#X connect 18 0 6 0;
