#N canvas 14 22 740 570 10;
#X obj 61 138 t f f f f f;
#X obj 16 194 spigot 0;
#X obj 306 175 switch~;
#X obj 306 155 tgl 15 0 empty empty empty 17 7 0 10 -262144 -1 -1 0
1;
#X obj 306 135 r sp-dsp;
#X text 305 192 proc switch;
#X obj 61 46 inlet mod_switch;
#X obj 428 155 sel 0 1;
#X obj 40 70 cnv 15 160 60 label-template-snd label-template-rcv GePS_TEMPLATE
20 12 0 12 -261689 -66577 0;
#X msg 447 210 \; label-template-rcv color 16 12;
#X msg 428 174 \; label-template-rcv color 3 2;
#X obj 61 97 tgl 15 0 empty empty empty 17 7 0 10 -262144 -1 -1 0 1
;
#X text 81 96 turn module on/off;
#X obj 212 80 route switch;
#X obj 31 243 spigot 0;
#X obj 31 220 r gyro_all;
#X obj 16 445 geps.em-gyro 4 20;
#X obj 16 389 geps.sampleplayer;
#X obj 16 365 bng 15 250 50 0 empty empty empty 17 7 0 10 -262144 -1
-1;
#X msg 204 364 speed \$1;
#X msg 35 365 open;
#X floatatom 204 343 5 0 0 0 - - -;
#X msg 71 365 read sounds/bowl.aif;
#X text 109 218 receive sensor data;
#X text 166 299 stretch release of movement;
#X text 272 385 play a sample;
#X text 131 445 amplify the sample by the amount of movement;
#X text 436 58 replace the text "template";
#X text 436 74 with the title of this module;
#X text 17 18 GePS <title of module>;
#X obj 65 298 slide.cs 1 20;
#N canvas 1197 569 330 153 header 0;
#X obj 2 2 cnv 15 300 60 empty empty geps.mod-template 10 12 0 12 -240757
-86277 0;
#X obj 2 64 geps.abstraction-header;
#X text 11 25 GePS module template;
#X text 11 37 copy this patcher and invent a new module! :);
#X coords 0 -1 1 1 304 130 1 0 0;
#X restore 408 263 pd header;
#X obj 71 345 loadbang;
#X obj 212 59 r geps.template;
#X obj 115 473 throw~ def.R;
#X obj 16 473 throw~ def.L;
#X obj 204 475 comment 0 10 monaco ? 0 0 0 0 set this to the desired
channel of the mixer (i.e. ch-04.L / ch-04.R);
#X obj 16 171 r t.flick;
#X text 86 173 recieve triggers;
#X connect 0 0 1 1;
#X connect 0 1 14 1;
#X connect 0 3 7 0;
#X connect 0 4 3 0;
#X connect 1 0 18 0;
#X connect 3 0 2 0;
#X connect 4 0 3 0;
#X connect 6 0 11 0;
#X connect 7 0 10 0;
#X connect 7 1 9 0;
#X connect 11 0 0 0;
#X connect 13 0 11 0;
#X connect 14 0 30 0;
#X connect 15 0 14 0;
#X connect 16 0 35 0;
#X connect 16 1 34 0;
#X connect 17 0 16 0;
#X connect 17 1 16 1;
#X connect 18 0 17 0;
#X connect 19 0 17 0;
#X connect 20 0 17 0;
#X connect 21 0 19 0;
#X connect 22 0 17 0;
#X connect 30 0 16 2;
#X connect 32 0 22 0;
#X connect 33 0 13 0;
#X connect 37 0 1 0;
#X coords 0 -1 1 1 160 60 1 40 70;
