#N canvas 386 22 865 850 10;
#X obj 16 242 spigot 0;
#X obj 148 241 spigot 0;
#X obj 148 218 r gyro_all;
#N canvas 220 377 450 300 volumeControl 0;
#X obj 30 38 inlet;
#X obj 109 38 inlet;
#X obj 109 228 outlet~;
#X obj 109 206 slide~ 3800 1500;
#X obj 109 183 *~ 0.75;
#X obj 109 160 *~;
#X obj 109 137 sig~;
#X text 108 16 gyro_all;
#X obj 109 111 spigot;
#X obj 30 70 t f f;
#X obj 30 99 sel 1;
#X text 28 16 toggle;
#X connect 0 0 9 0;
#X connect 1 0 8 0;
#X connect 3 0 2 0;
#X connect 4 0 3 0;
#X connect 5 0 4 0;
#X connect 6 0 5 0;
#X connect 6 0 5 1;
#X connect 8 0 6 0;
#X connect 9 0 10 0;
#X connect 9 1 8 1;
#X connect 10 1 6 0;
#X restore 289 363 pd volumeControl;
#X obj 289 342 tgl 15 0 empty empty empty 17 7 0 10 -262144 -1 -1 1
1;
#X obj 33 359 0;
#X obj 16 334 t b b b b;
#X obj 103 359 0;
#X obj 75 359 1;
#X obj 75 381 pipe 500;
#X obj 148 407 spigot 1;
#X obj 148 429 > 0.35;
#X obj 148 455 change;
#X obj 148 477 sel 1 0;
#X obj 175 522 1;
#X obj 148 499 t b b;
#X obj 148 563 spigot 1;
#X obj 16 423 t b b b;
#X obj 55 444 0;
#X obj 35 467 del 20;
#X obj 35 487 1;
#X msg 202 465 set 2;
#X obj 148 607 / 500;
#X obj 148 629 t f f;
#X obj 148 651 cycle 2;
#X obj 148 677 geps.transients.player;
#N canvas 659 441 623 356 emphasizeMovement 0;
#X obj 27 -9 inlet~ L;
#X obj 27 226 *~ 0.707;
#X obj 27 270 tanh~;
#X obj 27 292 outlet~ L;
#X obj 97 226 *~ 0.707;
#X obj 97 270 tanh~;
#X obj 97 -9 inlet~ R;
#X obj 97 292 outlet~ R;
#X msg 175 209 \$1 10;
#X obj 175 231 line~ 1;
#X obj 27 248 *~;
#X obj 97 248 *~;
#X obj 194 -9 r gyro_all;
#X obj 194 13 * 1;
#X obj 194 35 * 1.4;
#X obj 194 57 slide.cs 8 20;
#X obj 194 79 + 0.5;
#X obj 194 101 *;
#X obj 194 131 split 0 1;
#X obj 194 153 * 1;
#X obj 194 184 clip 0.3 1.4;
#X obj 194 292 outlet;
#X connect 0 0 1 0;
#X connect 1 0 10 0;
#X connect 2 0 3 0;
#X connect 4 0 11 0;
#X connect 5 0 7 0;
#X connect 6 0 4 0;
#X connect 8 0 9 0;
#X connect 9 0 10 1;
#X connect 9 0 11 1;
#X connect 10 0 2 0;
#X connect 11 0 5 0;
#X connect 12 0 13 0;
#X connect 12 0 13 1;
#X connect 13 0 14 0;
#X connect 14 0 15 0;
#X connect 15 0 16 0;
#X connect 16 0 17 0;
#X connect 16 0 17 1;
#X connect 17 0 18 0;
#X connect 18 0 19 0;
#X connect 18 0 19 1;
#X connect 18 1 20 0;
#X connect 19 0 20 0;
#X connect 20 0 21 0;
#X connect 20 0 8 0;
#X restore 148 731 pd emphasizeMovement;
#X obj 637 34 table transientbuffer.R;
#X obj 637 13 table transientbuffer.L;
#X msg 513 305 read transients/0_collective_fingers-peakIndex.txt;
#X obj 513 387 s piColl;
#X obj 513 738 soundfiler;
#X obj 148 312 slide.cs 1 35;
#X obj 513 96 loadbang;
#N canvas 488 56 287 514 hann 0;
#X obj 29 66 f 256;
#X obj 1 140 until;
#X obj 62 185 + 1;
#X obj 33 213 t b f b b f;
#X obj 33 342 1;
#X obj 47 370 -;
#X obj 47 397 * 0.5;
#X obj 62 342 cos;
#X obj 62 316 /;
#X obj 62 291 *;
#X obj 77 267 * 3.1415;
#X obj 77 246 2;
#X obj 133 267 f;
#X obj 33 185 f 0;
#X obj 29 96 t f b f;
#X msg 48 140 0;
#X obj 137 476 outlet pos;
#X obj 47 476 outlet val;
#X obj 29 11 inlet bang;
#X obj 29 42 t b;
#X obj 100 11 inlet size;
#X connect 0 0 14 0;
#X connect 1 0 13 0;
#X connect 2 0 13 1;
#X connect 3 0 4 0;
#X connect 3 1 9 0;
#X connect 3 2 11 0;
#X connect 3 3 12 0;
#X connect 3 4 16 0;
#X connect 4 0 5 0;
#X connect 5 0 6 0;
#X connect 6 0 17 0;
#X connect 7 0 5 1;
#X connect 8 0 7 0;
#X connect 9 0 8 0;
#X connect 10 0 9 1;
#X connect 11 0 10 0;
#X connect 12 0 8 1;
#X connect 13 0 2 0;
#X connect 13 0 3 0;
#X connect 14 0 1 0;
#X connect 14 1 15 0;
#X connect 14 2 12 1;
#X connect 15 0 13 1;
#X connect 18 0 19 0;
#X connect 19 0 0 0;
#X connect 20 0 0 1;
#X restore 637 141 pd hann;
#X obj 637 163 tabwrite windowArray;
#X obj 637 99 loadbang;
#X obj 314 536 granulator/16grain~ transientbuffer.L windowArray;
#X obj 314 564 granulator/16grain~ transientbuffer.R windowArray;
#X obj 713 120 s windowSize;
#X obj 637 120 t b b;
#X obj 605 512 r windowSize;
#X obj 289 559 *~;
#X obj 289 584 *~;
#X obj 314 390 tgl 15 0 empty empty empty 17 7 0 10 -262144 -1 -1 0
1;
#X obj 314 483 random 20000;
#X obj 513 762 s tb-length;
#X obj 383 416 r tb-length;
#X obj 383 463 - 100;
#X obj 383 441 i;
#X obj 438 463 1;
#X floatatom 348 317 5 0 0 0 - - -, f 5;
#X floatatom 438 316 5 0 0 0 - - -, f 5;
#X obj 676 120 512;
#X obj 637 56 table windowArray 512;
#X obj 410 388 t f b;
#X text 348 294 duration;
#X text 435 293 pitch;
#X obj 314 410 metro 18;
#X obj 348 433 200;
#X obj 314 507 pack 0 200 1;
#X msg 513 659 read -resize sounds/Schellen1.aif transientbuffer.L
transientbuffer.R;
#X msg 513 329 read transients/Schellen1-peakIndex.txt;
#X obj 201 700 geps.transients.player;
#X obj 148 585 realtime;
#X msg 513 621 read -resize sounds/0_Collective_Fingers.wav transientbuffer.L
transientbuffer.R;
#X obj 61 178 t f f f f f;
#X obj 306 215 switch~;
#X obj 306 195 tgl 15 0 empty empty empty 17 7 0 10 -262144 -1 -1 0
1;
#X obj 306 175 r sp-dsp;
#X text 305 232 proc switch;
#X obj 61 86 inlet mod_switch;
#X obj 398 195 sel 0 1;
#X obj 40 110 cnv 15 160 60 label-transients-snd label-transients-rcv
GePS_TRANSIENTS 20 12 0 12 -261689 -66577 0;
#X obj 61 137 tgl 15 0 empty empty empty 17 7 0 10 -262144 -1 -1 0
1;
#X text 81 136 turn module on/off;
#X obj 212 120 route switch;
#X text 17 48 GePS TRANSIENTS;
#X obj 212 99 r geps.transients;
#N canvas 556 518 619 80 header 0;
#X obj 2 2 cnv 15 300 60 empty empty GePS_TRANSIENTS 10 12 0 12 -240757
-86277 0;
#X obj 304 0 geps.abstraction-header;
#X text 11 25 Play transients of specified material by;
#X text 11 37 specific criteria \, granulate.;
#X coords 0 -1 1 1 604 64 1 0 0;
#X restore 8 9 pd header;
#X msg 398 214 \; label-transients-rcv color 3 2;
#X msg 417 250 \; label-transients-rcv color 16 12;
#X obj 19 577 comment 120 10 monaco ? 0 0 0 0 measure time of movement
before trigger and play a more or less percussive slice;
#X obj 568 417 r geps.transients;
#X obj 568 443 route material;
#X obj 568 467 sel 0 1;
#X obj 148 753 throw~ ch-01.L;
#X obj 206 773 throw~ ch-01.R;
#X obj 148 793 throw~ freezer.inL;
#X obj 206 813 throw~ freezer.inR;
#X obj 16 219 r t.flick;
#X connect 0 0 6 0;
#X connect 1 0 3 1;
#X connect 1 0 32 0;
#X connect 2 0 1 0;
#X connect 3 0 43 0;
#X connect 3 0 42 0;
#X connect 4 0 3 0;
#X connect 5 0 12 0;
#X connect 5 0 4 0;
#X connect 6 0 17 0;
#X connect 6 1 5 0;
#X connect 6 2 8 0;
#X connect 6 3 7 0;
#X connect 7 0 10 1;
#X connect 8 0 9 0;
#X connect 9 0 10 1;
#X connect 10 0 11 0;
#X connect 11 0 12 0;
#X connect 12 0 13 0;
#X connect 13 0 15 0;
#X connect 13 1 21 0;
#X connect 14 0 4 0;
#X connect 15 0 16 0;
#X connect 15 1 14 0;
#X connect 16 0 64 0;
#X connect 17 0 64 1;
#X connect 17 1 19 0;
#X connect 17 2 18 0;
#X connect 18 0 16 1;
#X connect 19 0 20 0;
#X connect 20 0 16 1;
#X connect 21 0 12 0;
#X connect 22 0 23 0;
#X connect 23 0 24 0;
#X connect 23 1 25 1;
#X connect 23 1 63 1;
#X connect 24 0 25 0;
#X connect 24 1 63 0;
#X connect 25 0 26 0;
#X connect 25 1 26 1;
#X connect 25 2 63 2;
#X connect 26 0 86 0;
#X connect 26 0 88 0;
#X connect 26 1 87 0;
#X connect 26 1 89 0;
#X connect 29 0 30 0;
#X connect 31 0 46 0;
#X connect 32 0 10 0;
#X connect 33 0 29 0;
#X connect 33 0 65 0;
#X connect 34 0 35 0;
#X connect 34 1 35 1;
#X connect 36 0 40 0;
#X connect 37 0 42 1;
#X connect 38 0 43 1;
#X connect 40 0 34 0;
#X connect 40 1 53 0;
#X connect 41 0 37 3;
#X connect 41 0 38 3;
#X connect 42 0 86 0;
#X connect 43 0 87 0;
#X connect 44 0 58 0;
#X connect 45 0 60 0;
#X connect 47 0 49 0;
#X connect 48 0 45 1;
#X connect 49 0 48 0;
#X connect 50 0 60 2;
#X connect 51 0 59 0;
#X connect 52 0 50 0;
#X connect 53 0 39 0;
#X connect 53 0 34 1;
#X connect 55 0 48 1;
#X connect 55 1 49 0;
#X connect 58 0 45 0;
#X connect 59 0 55 0;
#X connect 59 0 60 1;
#X connect 60 0 37 0;
#X connect 60 0 38 0;
#X connect 61 0 31 0;
#X connect 62 0 30 0;
#X connect 63 0 26 0;
#X connect 63 1 26 1;
#X connect 63 2 25 2;
#X connect 64 0 22 0;
#X connect 65 0 31 0;
#X connect 66 0 0 1;
#X connect 66 1 1 1;
#X connect 66 3 72 0;
#X connect 66 3 44 0;
#X connect 66 4 68 0;
#X connect 68 0 67 0;
#X connect 69 0 68 0;
#X connect 71 0 74 0;
#X connect 72 0 80 0;
#X connect 72 1 81 0;
#X connect 74 0 66 0;
#X connect 76 0 74 0;
#X connect 78 0 76 0;
#X connect 83 0 84 0;
#X connect 84 0 85 0;
#X connect 85 0 29 0;
#X connect 85 0 65 0;
#X connect 85 1 62 0;
#X connect 85 1 61 0;
#X connect 90 0 0 0;
#X coords 0 -1 1 1 160 60 1 40 110;
