#N canvas 311 234 740 570 10;
#X obj 61 138 t f f f f f;
#X obj 16 194 spigot 0;
#X obj 306 175 switch~;
#X obj 306 155 tgl 15 0 empty empty empty 17 7 0 10 -262144 -1 -1 0
1;
#X obj 306 135 r sp-dsp;
#X text 305 192 proc switch;
#X obj 61 46 inlet mod_switch;
#X obj 428 155 sel 0 1;
#X obj 40 70 cnv 15 160 60 label-freezer-snd label-freezer-rcv GePS_FREEZER
20 12 0 12 -24198 -33289 0;
#X obj 61 97 tgl 15 0 empty empty empty 17 7 0 10 -262144 -1 -1 0 1
;
#X text 81 96 turn module on/off;
#X obj 216 80 route switch;
#X obj 16 399 geps.sampleplayer;
#X obj 68 308 slide.cs 1 20;
#N canvas 1197 569 330 153 header 0;
#X obj 2 2 cnv 15 300 60 empty empty geps.freezer 10 12 0 12 -240757
-86277 0;
#X obj 2 64 geps.abstraction-header;
#X text 11 25 Freeze incoming audio;
#X text 11 37 On and off with flicks \, optional with transient;
#X coords 0 -1 1 1 304 130 1 0 0;
#X restore 408 313 pd header;
#X text 17 18 GePS Freezer;
#X msg 428 174 \; label-freezer-rcv color 3 2;
#X msg 447 210 \; label-freezer-rcv color 16 12;
#X obj 31 285 spigot 0;
#X obj 31 262 r gyro_all;
#N canvas 1112 499 492 482 freezer 0;
#X obj -17 337 freeverb~;
#X obj 149 148 tgl 15 0 empty empty empty 17 7 0 10 -262144 -1 -1 0
1;
#X msg 149 169 freeze \$1;
#X msg 338 23 roomsize \$1;
#X msg 338 68 damping \$1;
#X msg 338 112 width \$1;
#X msg 338 156 wet \$1;
#X msg 338 200 dry \$1;
#X msg 149 221 bypass \$1;
#X obj 149 202 tgl 15 0 empty empty empty 0 -6 0 8 -262144 -1 -1 0
1;
#X obj 350 177 hsl 60 18 0 1 0 1 empty empty dry 2 9 1 12 -225271 -1
-1 3700 0;
#X obj 350 133 hsl 60 18 0 1 0 1 empty empty wet 2 9 1 12 -225271 -1
-1 5900 0;
#X obj 350 89 hsl 60 18 0 1 0 1 empty empty width 2 9 1 12 -262131
-1 -1 5900 0;
#X obj 350 45 hsl 60 18 0 2 0 1 empty empty damping 2 9 1 12 -261689
-1 -1 3200 0;
#X obj 350 0 hsl 60 18 0.11 1.1 0 1 empty empty roomsize 2 9 1 12 -261689
-1 -1 2800 0;
#X floatatom 320 4 3 0 0 0 - - -;
#X floatatom 320 49 3 0 0 0 - - -;
#X floatatom 320 94 3 0 0 0 - - -;
#X floatatom 320 137 3 0 0 0 - - -;
#X floatatom 320 181 3 0 0 0 - - -;
#X obj -17 -55 inlet~;
#X obj 34 -55 inlet~;
#X obj 148 -55 inlet;
#X obj 49 297 vline~;
#X obj -17 365 *~;
#X obj 34 364 *~;
#X obj 3 62 r freezeverb;
#X obj 338 225 s freezeverb;
#X obj 90 19 sel 1 0;
#X obj 90 -3 t f f;
#X msg 89 274 0 170;
#X msg 49 273 1 10;
#X obj 49 214 vline~;
#X obj 49 165 delay 170;
#X obj -17 245 *~;
#X obj 34 245 *~;
#X obj 3 87 route in;
#X obj 148 -33 route bang;
#X msg 181 121 0;
#X msg 149 121 1;
#X obj 148 95 t b b;
#X obj 3 112 t b;
#X obj 260 239 loadbang;
#X obj 90 97 t b b;
#X obj 109 42 t b b b b;
#X text 327 -51 GePS: Freezer;
#X obj 238 -55 inlet;
#X obj -17 394 outlet~ L;
#X obj 57 394 outlet~ R;
#X msg 49 191 1 2;
#X msg 89 191 0 1;
#X obj 188 3 bng 15 250 50 0 empty empty empty 17 7 0 10 -262144 -1
-1;
#X obj 148 76 delay 42;
#X obj 90 73 delay 12;
#X msg 260 262 \; freezeverb bypass 0 \; freezeverb roomsize 0.1 \;
freezeverb damping 0 \; freezeverb width 1 \; freezeverb wet 1 \; freezeverb
dry 0 \; freezeverb freeze 0 \; freezeverb in 1 \;;
#X connect 0 0 24 0;
#X connect 0 1 25 0;
#X connect 1 0 2 0;
#X connect 2 0 0 0;
#X connect 3 0 27 0;
#X connect 4 0 27 0;
#X connect 5 0 27 0;
#X connect 6 0 27 0;
#X connect 7 0 27 0;
#X connect 8 0 0 0;
#X connect 9 0 8 0;
#X connect 10 0 7 0;
#X connect 10 0 19 0;
#X connect 11 0 6 0;
#X connect 11 0 18 0;
#X connect 12 0 5 0;
#X connect 12 0 17 0;
#X connect 13 0 4 0;
#X connect 13 0 16 0;
#X connect 14 0 3 0;
#X connect 14 0 15 0;
#X connect 20 0 34 0;
#X connect 21 0 35 0;
#X connect 22 0 37 0;
#X connect 23 0 25 1;
#X connect 23 0 24 1;
#X connect 24 0 47 0;
#X connect 25 0 48 0;
#X connect 26 0 36 0;
#X connect 28 0 53 0;
#X connect 28 1 44 0;
#X connect 29 0 28 0;
#X connect 30 0 23 0;
#X connect 31 0 23 0;
#X connect 32 0 34 1;
#X connect 32 0 35 1;
#X connect 33 0 49 0;
#X connect 34 0 0 0;
#X connect 35 0 0 1;
#X connect 36 0 41 0;
#X connect 36 1 0 0;
#X connect 37 0 38 0;
#X connect 37 0 51 0;
#X connect 37 0 52 0;
#X connect 37 1 29 0;
#X connect 38 0 1 0;
#X connect 39 0 1 0;
#X connect 40 0 31 0;
#X connect 40 1 39 0;
#X connect 41 0 49 0;
#X connect 42 0 54 0;
#X connect 43 0 31 0;
#X connect 43 1 39 0;
#X connect 44 0 33 0;
#X connect 44 1 30 0;
#X connect 44 2 50 0;
#X connect 44 3 38 0;
#X connect 49 0 32 0;
#X connect 50 0 32 0;
#X connect 52 0 40 0;
#X connect 53 0 43 0;
#X restore 178 415 pd freezer;
#X obj 216 296 tgl 15 0 empty empty empty 17 7 0 10 -262144 -1 -1 0
1;
#X obj 216 315 bng 15 250 50 0 empty empty empty 17 7 0 10 -262144
-1 -1;
#X text 243 294 freeze on/off;
#X text 243 314 continuously freeze;
#X msg 216 273 0;
#X text 243 271 off;
#X msg 31 378 read sounds/saxslap.aif;
#X obj 31 328 loadbang;
#X obj 16 457 +~;
#X obj 40 457 +~;
#X obj 216 59 r geps.freezer;
#X obj 216 112 sel 0;
#X obj 16 495 geps.em-gyro 42 60;
#X obj 121 523 throw~ ch-02.R;
#X obj 16 523 throw~ ch-02.L;
#X obj 178 167 inlet~ L;
#X obj 197 188 inlet~ R;
#X obj 178 217 catch~ freezer.inL;
#X obj 197 238 catch~ freezer.inR;
#X obj 16 171 r t.flick;
#X msg 31 356 gain 0.18;
#X connect 0 0 1 1;
#X connect 0 1 18 1;
#X connect 0 2 20 3;
#X connect 0 3 7 0;
#X connect 0 4 3 0;
#X connect 1 0 21 0;
#X connect 1 0 12 0;
#X connect 3 0 2 0;
#X connect 4 0 3 0;
#X connect 6 0 9 0;
#X connect 7 0 16 0;
#X connect 7 1 17 0;
#X connect 9 0 0 0;
#X connect 9 0 32 0;
#X connect 11 0 9 0;
#X connect 12 0 29 0;
#X connect 12 0 30 0;
#X connect 13 0 33 2;
#X connect 18 0 13 0;
#X connect 19 0 18 0;
#X connect 20 0 29 1;
#X connect 20 1 30 1;
#X connect 21 0 20 2;
#X connect 22 0 20 2;
#X connect 25 0 21 0;
#X connect 27 0 12 0;
#X connect 28 0 27 0;
#X connect 28 0 41 0;
#X connect 29 0 33 0;
#X connect 30 0 33 1;
#X connect 31 0 11 0;
#X connect 32 0 25 0;
#X connect 33 0 35 0;
#X connect 33 1 34 0;
#X connect 36 0 20 0;
#X connect 37 0 20 1;
#X connect 38 0 20 0;
#X connect 39 0 20 1;
#X connect 40 0 1 0;
#X connect 41 0 12 0;
#X coords 0 -1 1 1 160 60 1 40 70;
