#N canvas 477 441 371 295 10;
#X obj 69 47 tgl 15 0 empty empty empty 17 7 0 10 -262144 -1 -1 0 1
;
#X obj 69 93 bng 15 250 50 0 empty empty empty 17 7 0 10 -262144 -1
-1;
#X floatatom 96 227 5 0 0 0 - - -;
#X obj 96 205 random 255;
#X floatatom 69 138 5 0 0 0 - - -;
#X obj 69 113 counter 6;
#X msg 120 137 255;
#X msg 156 137 255;
#X floatatom 167 227 5 0 0 0 - - -;
#X obj 167 205 random 255;
#X obj 69 160 sel 6;
#X obj 120 249 s testvalues;
#X obj 96 183 t b;
#X obj 11 227 spigot;
#X obj 44 47 tgl 15 0 empty empty empty 17 7 0 10 -262144 -1 -1 0 1
;
#X obj 195 138 bng 15 250 50 0 empty empty empty 17 7 0 10 -262144
-1 -1;
#X obj 11 249 print testing;
#X obj 11 205 r testvalues;
#X obj 69 69 metro 5;
#X text 168 61 GePS: Sensor Data Simulator;
#X obj 69 19 inlet;
#X obj 108 19 inlet;
#X obj 148 19 inlet;
#X connect 0 0 18 0;
#X connect 3 0 2 0;
#X connect 3 0 11 0;
#X connect 5 0 4 0;
#X connect 5 0 10 0;
#X connect 5 3 6 0;
#X connect 5 3 7 0;
#X connect 5 3 15 0;
#X connect 6 0 11 0;
#X connect 7 0 11 0;
#X connect 9 0 8 0;
#X connect 9 0 11 0;
#X connect 10 1 12 0;
#X connect 12 0 9 0;
#X connect 12 0 3 0;
#X connect 13 0 16 0;
#X connect 14 0 13 1;
#X connect 17 0 13 0;
#X connect 18 0 1 0;
#X connect 18 0 5 0;
#X connect 20 0 0 0;
#X connect 21 0 18 1;
#X connect 22 0 14 0;
