#N canvas 250 380 318 82 10;
#X obj 2 2 cnv 15 296 60 empty empty empty 20 12 0 12 -259932 -262144
0;
#X text 10 28 If you want to modify it \, copy the contents;
#X text 10 40 to a subpatcher or to a new patcher.;
#X text 11 9 DO NOT MODIFY! THIS IS A GePS ABSTRACTION.;
#X coords 0 -1 1 1 300 64 2 0 0;
