#N canvas 217 448 290 327 10;
#X obj 22 231 clip~ -1 1;
#X obj 121 231 tanh~;
#N canvas 481 237 199 197 switch~ 0;
#X obj 14 106 *~;
#X obj 97 108 *~;
#X obj 72 44 != 1;
#X obj 112 14 inlet;
#X obj 14 14 inlet~;
#X obj 14 148 outlet~;
#X obj 97 148 outlet~;
#X obj 29 74 vline~ 1 10;
#X obj 112 74 vline~ 0 10;
#X connect 0 0 5 0;
#X connect 1 0 6 0;
#X connect 2 0 7 0;
#X connect 3 0 8 0;
#X connect 3 0 2 0;
#X connect 4 0 0 0;
#X connect 4 0 1 0;
#X connect 7 0 0 1;
#X connect 8 0 1 1;
#X restore 22 171 pd switch~;
#X obj 22 261 +~;
#X obj 79 21 inlet switch;
#X obj 79 141 f \$1;
#X obj 93 111 loadbang;
#X obj 93 51 r mixer.summing;
#X obj 93 81 route type factor;
#X obj 142 171 f \$2;
#X obj 121 201 *~ 1;
#X obj 213 51 loadbang;
#X obj 22 21 inlet~;
#X obj 22 291 outlet~;
#X obj 213 81 f \$2;
#X obj 213 111 sel 0;
#X obj 213 137 1;
#X connect 0 0 3 0;
#X connect 1 0 3 1;
#X connect 2 0 0 0;
#X connect 2 1 10 0;
#X connect 3 0 13 0;
#X connect 4 0 5 0;
#X connect 5 0 2 1;
#X connect 6 0 5 0;
#X connect 7 0 8 0;
#X connect 8 0 5 0;
#X connect 8 1 9 0;
#X connect 9 0 10 1;
#X connect 10 0 1 0;
#X connect 11 0 14 0;
#X connect 12 0 2 0;
#X connect 14 0 15 0;
#X connect 15 0 16 0;
#X connect 15 1 9 0;
#X connect 16 0 9 0;
