#N canvas 492 426 493 313 10;
#X obj 17 74 t a a;
#X obj 17 122 pack s 0;
#X obj 62 96 expr size("$s1");
#X obj 51 214 listfunnel;
#X obj 51 236 swap;
#X obj 51 258 pack f f;
#X obj 17 21 inlet;
#X obj 80 21 inlet;
#X obj 17 144 list-abs/list-tabdump xxx;
#X obj 51 280 outlet;
#X text 193 20 GePS: proccess list for sensor data display;
#X obj 132 20 inlet;
#X obj 17 190 list split 1;
#X obj 17 168 list append;
#X obj 17 53 spigot 0;
#X connect 0 0 1 0;
#X connect 0 1 2 0;
#X connect 1 0 8 0;
#X connect 2 0 1 1;
#X connect 3 0 4 0;
#X connect 4 0 5 0;
#X connect 4 1 5 1;
#X connect 5 0 9 0;
#X connect 6 0 14 0;
#X connect 7 0 13 1;
#X connect 8 0 13 0;
#X connect 11 0 14 1;
#X connect 12 1 3 0;
#X connect 13 0 12 0;
#X connect 14 0 0 0;
