#N canvas 730 248 339 120 10;
#X obj 12 -172 - 32768;
#X obj 12 -194 inlet;
#X obj 12 -128 outlet;
#X text 10 -214 GePS sensor value scaling;
#X obj 12 -150 / 32768;
#X text 69 -194 input: unsigned int 2^16 (0...65535);
#X text 70 -172 move to signed int range (-32768...+32767);
#X text 70 -150 scale to signed float (-1...+1);
#X connect 0 0 4 0;
#X connect 1 0 0 0;
#X connect 4 0 2 0;
