#N canvas 402 22 377 620 10;
#X text -94 5 GePS transients player;
#X obj -93 34 inlet;
#X obj -53 46 inlet;
#X obj -6 34 inlet;
#X obj -93 545 outlet~;
#X obj -33 545 outlet~;
#X obj 37 545 outlet;
#X obj -93 489 hip~ 5;
#X obj -33 515 hip~ 5;
#X obj -93 435 line~;
#X obj -93 468 tabread4~ transientbuffer.L;
#X obj -33 494 tabread4~ transientbuffer.R;
#X text -105 568 optimisation note: upsample the soundfiles for better
interpolated playback.;
#X obj -93 277 coll peakIndex;
#C restore;
#X obj -93 299 unpack 0 0 0;
#X obj -54 435 s transientTrigger;
#X obj 3 351 sampstoms~;
#X obj -93 249 t f b f;
#N canvas 723 188 450 300 noRepetition 0;
#X obj 38 33 inlet;
#X obj 38 65 t f f;
#X obj 38 97 ==;
#X obj 38 129 sel 1 0;
#X obj 38 161 i;
#X obj 38 193 + 1;
#X obj 67 193 i;
#X obj 38 225 outlet;
#X obj 78 33 inlet;
#X connect 0 0 1 0;
#X connect 1 0 2 0;
#X connect 1 1 4 1;
#X connect 1 1 6 1;
#X connect 2 0 3 0;
#X connect 3 0 4 0;
#X connect 3 1 6 0;
#X connect 4 0 5 0;
#X connect 5 0 7 0;
#X connect 6 0 7 0;
#X connect 8 0 2 1;
#X restore -93 225 pd noRepetition;
#X obj -93 204 * 20;
#X obj 31 229 t b b b;
#X msg 80 251 renumber;
#X msg 31 251 length;
#X obj -41 249 r piColl;
#X obj 31 275 coll peakIndex;
#C restore;
#X obj 31 297 - 1;
#X floatatom 31 319 5 0 0 0 - - -;
#X obj -93 82 sig~;
#X obj -93 179 snapshot~;
#X text -54 28 pitch?;
#X floatatom 31 196 10 0 0 0 - - -;
#X obj -93 105 pong~ 0 0.05 1;
#X obj -83 127 change~;
#X obj -83 148 edge~;
#X obj -93 378 pack 0 0 0;
#X obj -74 355 +;
#X msg -93 403 \$1 0 \, \$2 \$3;
#X obj -24 330 t f f;
#X obj -93 330 t f f b;
#X msg 141 221 sort -1 6;
#X text 213 221 louder;
#X text 213 251 longer;
#X msg 141 251 sort -1 5;
#X connect 1 0 27 0;
#X connect 3 0 18 1;
#X connect 7 0 4 0;
#X connect 8 0 5 0;
#X connect 9 0 10 0;
#X connect 9 0 11 0;
#X connect 10 0 7 0;
#X connect 11 0 8 0;
#X connect 13 0 14 0;
#X connect 13 2 20 0;
#X connect 14 0 38 0;
#X connect 14 2 37 0;
#X connect 16 1 34 2;
#X connect 17 0 13 0;
#X connect 17 2 6 0;
#X connect 18 0 17 0;
#X connect 19 0 18 0;
#X connect 20 0 22 0;
#X connect 20 1 21 0;
#X connect 20 2 42 0;
#X connect 21 0 24 0;
#X connect 22 0 24 0;
#X connect 23 0 13 0;
#X connect 24 0 25 0;
#X connect 25 0 26 0;
#X connect 25 0 19 1;
#X connect 27 0 31 0;
#X connect 28 0 19 0;
#X connect 28 0 30 0;
#X connect 31 0 28 0;
#X connect 31 0 32 0;
#X connect 32 0 33 0;
#X connect 33 0 28 0;
#X connect 34 0 36 0;
#X connect 35 0 34 1;
#X connect 36 0 9 0;
#X connect 37 0 35 1;
#X connect 37 1 16 0;
#X connect 38 0 34 0;
#X connect 38 1 35 0;
#X connect 38 2 15 0;
#X connect 42 0 24 0;
