#N canvas 146 309 303 97 10;
#X obj 12 -195 - 32768;
#X obj 12 -218 inlet;
#X obj 12 -151 outlet;
#X text 73 -219 GePS sensor value scaling;
#X text 102 -178 32768;
#X text 104 -158 16384;
#X obj 12 -173 / 32768;
#X connect 0 0 6 0;
#X connect 1 0 0 0;
#X connect 6 0 2 0;
