#N canvas 603 66 385 401 10;
#X declare -lib cyclone;
#X obj 275 292 geps.sensorsim;
#X floatatom 315 270 5 0 0 0 - - -, f 5;
#X obj 275 270 tgl 15 0 empty empty empty 17 7 0 10 -262144 -1 -1 0
1;
#X obj 356 270 tgl 15 0 empty empty empty 17 7 0 10 -262144 -1 -1 0
1;
#X obj 210 7 geps.transients;
#X obj 211 90 geps.mod-template;
#X obj 211 176 geps.freezer;
#N canvas 46 90 919 672 serialCheck 0;
#X obj 1 1 cnv 15 140 80 empty serial.statusdisp-rcv SERIAL-STATUS:
12 12 0 12 -166441 -66577 0;
#X obj 1 19 cnv 15 80 20 empty serial.statusmsg-rcv CLOSED 12 12 0
14 -166441 -66577 0;
#X obj 171 222 sel 0 1 2;
#X msg 171 195 0;
#X msg 200 195 1;
#X msg 232 195 2;
#X obj 1 42 cnv 15 120 15 serial.latencydisp-snd serial.latencydisp-rcv
empty 12 6 0 12 -225271 -42246 0;
#X msg 14 284 label latency:\$1ms;
#X obj 14 325 s serial.latencydisp-rcv;
#X obj 14 263 r serial.latency;
#X obj 320 86 loadbang;
#X obj 339 150 s serial.checkval;
#X obj 339 129 1;
#X obj 200 64 r serial.seqstat;
#X obj 200 88 sel 1 0;
#X obj 320 64 bng 15 250 50 0 empty empty empty 17 7 0 10 -262144 -1
-1;
#X obj 287 133 0;
#X obj 476 16 r serial.statusport;
#X obj 476 90 sel 1 0;
#X msg 492 366 \; serial.comport symbol close \, symbol info;
#X obj 492 344 route bang;
#X obj 12 60 bng 15 250 50 0 serial.openbutton-snd serial.openbutton-rcv
open 20 7 0 12 -225271 -262144 -42246;
#X obj 492 405 route bang;
#X msg 492 427 \; serial.comport symbol open \, symbol info \;;
#X obj 492 465 route bang;
#X msg 531 511 \; serial.comport symbol close \, symbol info \;;
#X obj 492 486 t b b b;
#X msg 511 545 \; serial.statusmsg-rcv label CLOSED(resetting) \;;
#X obj 492 581 delay 1000;
#X msg 492 603 \; serial.comport symbol open \, symbol info \;;
#X obj 320 107 t b b b b;
#X msg 455 136 \; serial.comport symbol info;
#X obj 320 171 spigot 1;
#X obj 476 64 t f f;
#X obj 476 38 route open port;
#X obj 519 64 sel -1;
#X obj 1 42 cnv 15 120 15 serial.portmsg-snd serial.portmsg-rcv no_port
12 6 0 12 -166441 -262144 0;
#X obj 552 91 t b;
#X obj 254 101 delay 3000;
#X msg 635 115 \; serial.portmsg-rcv label no_port \, vis_size 120
15 \, pos 1 42 \;;
#X msg 635 148 \; serial.portmsg-rcv label \, vis_size 0 0 \, pos 124
42 \;;
#X obj 14 304 spigot 1;
#X obj 59 239 0;
#X obj 88 239 1;
#X obj 492 316 gate 3;
#X obj 492 276 r buttongate;
#X obj 525 297 r serial.openbutton-snd;
#X obj 541 487 bng 15 250 50 0 empty empty empty 17 7 0 10 -262144
-1 -1;
#X obj 562 406 bng 15 250 50 0 empty empty empty 17 7 0 10 -262144
-1 -1;
#X obj 559 345 bng 15 250 50 0 empty empty empty 17 7 0 10 -262144
-1 -1;
#X msg 205 528 \; serial.statusdisp-rcv color 1 2 \; serial.statusmsg-rcv
label CLOSED \; serial.statusmsg-rcv color 1 2 \; serial.openbutton-rcv
label open \; serial.openbutton-rcv color 6 0 26 \; serial.latencydisp-rcv
label \; serial.portmsg-rcv color 1 \; buttongate 2 \;;
#X msg 320 193 \; serial.statusmsg-rcv label READY(checking) \; serial.latencydisp-rcv
color 1 2 \;;
#X msg 188 399 \; serial.statusdisp-rcv color 6 26 \; serial.statusmsg-rcv
label READY \; serial.statusmsg-rcv color 6 26 \; serial.openbutton-rcv
label close \; serial.openbutton-rcv color 1 0 2 \; serial.latencydisp-rcv
color 6 26 \; serial.portmsg-rcv color 6 \, label \; buttongate 3 \;
;
#X msg 171 251 \; serial.statusdisp-rcv color 13 0 \; serial.statusmsg-rcv
label ERROR \; serial.statusmsg-rcv color 13 0 \; serial.openbutton-rcv
label reset \; serial.openbutton-rcv color 14 15 0 \; serial.latencydisp-rcv
label \, color 13 \; serial.portmsg-rcv color 13 \, label \; buttongate
1 \;;
#N canvas 63 181 451 485 sensordisplay 0;
#N canvas 0 22 450 278 (subpatch) 0;
#X array accel_x 100 float 4;
#X coords 0 1 99 -1 200 140 1 0 0;
#X restore 12 19 graph;
#N canvas 0 22 450 278 (subpatch) 0;
#X array accel_y 100 float 4;
#X coords 0 1 99 -1 200 140 1 0 0;
#X restore 12 174 graph;
#N canvas 0 22 450 278 (subpatch) 0;
#X array accel_z 100 float 4;
#X coords 0 1 99 -1 200 140 1 0 0;
#X restore 13 330 graph;
#N canvas 0 22 450 278 (subpatch) 0;
#X array gyro_x 100 float 4;
#X coords 0 1 99 -1 200 140 1 0 0;
#X restore 232 19 graph;
#N canvas 0 22 450 278 (subpatch) 0;
#X array gyro_y 100 float 4;
#X coords 0 1 99 -1 200 140 1 0 0;
#X restore 232 174 graph;
#N canvas 0 22 450 278 (subpatch) 0;
#X array gyro_z 100 float 4;
#X coords 0 1 99 -1 200 140 1 0 0;
#X restore 233 330 graph;
#X coords 0 485 1 484 446 480 0;
#X restore 15 165 pd sensordisplay;
#X obj 559 465 r serial.reset;
#N canvas 210 22 486 803 parse 0;
#X obj 133 16 inlet;
#X obj 244 16 inlet;
#N canvas 731 99 617 727 SerialByteParse7 0;
#X obj 55 -11 inlet;
#X obj 173 -11 inlet;
#X obj 173 17 bng 15 250 50 0 empty empty empty 17 7 0 10 -262144 -1
-1;
#X obj 55 403 cycle 7;
#X obj 55 451 sel 65535;
#X obj 55 17 t f f;
#X obj 55 279 cycle 2;
#X obj 94 304 << 8;
#X obj 55 331 +;
#X msg 0 249 set 0;
#X obj 82 45 match 255 255;
#X obj 55 512 outlet;
#X obj 105 512 outlet;
#X obj 155 512 outlet;
#X obj 205 512 outlet;
#X obj 255 512 outlet;
#X obj 305 512 outlet;
#X obj 5 512 outlet;
#X obj -34 -11 r testvalues;
#X obj 82 86 onebang 1;
#X obj 55 156 spigot;
#X obj -17 157 spigot;
#X obj 40 214 1;
#X obj 16 214 0;
#X obj -17 191 t f b b b;
#X obj 82 129 1;
#X obj 106 129 0;
#X obj 82 107 t b b;
#X obj 82 65 t b;
#X obj 55 486 float;
#X obj 105 486 float;
#X obj 155 486 float;
#X obj 205 486 float;
#X obj 255 486 float;
#X obj 305 486 float;
#X text 224 -12 GePS: Serial Byte Parsing;
#X obj 97 330 tgl 15 0 empty empty empty 17 7 0 10 -262144 -1 -1 0
1;
#X obj 64 357 spigot;
#X floatatom 64 379 5 0 0 0 - - -, f 5;
#X obj 200 69 delay 1000;
#X obj 173 45 t b b;
#X obj 382 442 != 65535;
#X obj 383 465 sel 1;
#X obj 383 487 counter;
#X floatatom 383 508 5 0 0 0 - - -, f 5;
#X msg 447 433 0;
#X obj 382 420 spigot;
#X obj 415 397 tgl 15 0 empty empty empty 17 7 0 10 -262144 -1 -1 0
1;
#X connect 0 0 5 0;
#X connect 1 0 2 0;
#X connect 2 0 40 0;
#X connect 3 0 17 0;
#X connect 3 0 4 0;
#X connect 3 0 46 0;
#X connect 3 1 29 1;
#X connect 3 2 30 1;
#X connect 3 3 31 1;
#X connect 3 4 32 1;
#X connect 3 5 33 1;
#X connect 3 6 34 1;
#X connect 4 0 29 0;
#X connect 4 0 30 0;
#X connect 4 0 31 0;
#X connect 4 0 32 0;
#X connect 4 0 33 0;
#X connect 4 0 34 0;
#X connect 5 0 20 0;
#X connect 5 0 21 0;
#X connect 5 1 10 0;
#X connect 6 0 8 0;
#X connect 6 1 7 0;
#X connect 7 0 8 1;
#X connect 8 0 3 0;
#X connect 8 0 37 0;
#X connect 9 0 3 0;
#X connect 9 0 6 0;
#X connect 10 0 28 0;
#X connect 18 0 5 0;
#X connect 19 0 27 0;
#X connect 20 0 6 0;
#X connect 21 0 24 0;
#X connect 22 0 20 1;
#X connect 23 0 21 1;
#X connect 24 0 6 0;
#X connect 24 1 9 0;
#X connect 24 2 23 0;
#X connect 24 3 22 0;
#X connect 25 0 21 1;
#X connect 26 0 20 1;
#X connect 27 0 25 0;
#X connect 27 1 26 0;
#X connect 28 0 19 0;
#X connect 29 0 11 0;
#X connect 30 0 12 0;
#X connect 31 0 13 0;
#X connect 32 0 14 0;
#X connect 33 0 15 0;
#X connect 34 0 16 0;
#X connect 36 0 37 1;
#X connect 37 0 38 0;
#X connect 39 0 19 1;
#X connect 40 0 19 1;
#X connect 40 1 39 0;
#X connect 41 0 42 0;
#X connect 42 0 43 0;
#X connect 43 0 44 0;
#X connect 45 0 43 2;
#X connect 46 0 41 0;
#X connect 47 0 46 1;
#X restore 133 53 pd SerialByteParse7;
#X floatatom 151 175 5 0 0 0 - - -, f 5;
#X floatatom 170 205 5 0 0 0 - - -, f 5;
#X floatatom 188 235 5 0 0 0 - - -, f 5;
#X floatatom 133 145 5 0 0 0 - - -, f 5;
#X floatatom 207 265 5 0 0 0 - - -, f 5;
#X floatatom 225 295 5 0 0 0 - - -, f 5;
#X floatatom 244 325 5 0 0 0 - - -, f 5;
#X text 95 143 start;
#X text 95 173 a_x;
#X obj 151 384 s accel_x;
#X obj 170 434 s accel_y;
#X obj 188 484 s accel_z;
#X obj 222 384 s gyro_x;
#X obj 240 434 s gyro_y;
#X obj 259 484 s gyro_z;
#X obj 151 362 geps.scale;
#X text 95 263 g_x;
#X text 95 293 g_y;
#X text 95 323 g_z;
#X text 95 203 a_y;
#X text 95 233 a_z;
#N canvas 643 170 425 339 visualize 0;
#X obj -54 61 t b;
#X obj -17 114 r accel_x;
#X obj -54 4 inlet;
#X msg -54 88 symbol accel_x;
#X obj -54 165 tabwrite accel_x;
#X msg 54 86 symbol accel_y;
#X obj 91 115 r accel_y;
#X obj 54 165 tabwrite accel_y;
#X msg 162 86 symbol accel_z;
#X obj 199 113 r accel_z;
#X obj 162 165 tabwrite accel_z;
#X obj 21 35 tgl 15 0 empty empty empty 17 7 0 10 -262144 -1 -1 0 1
;
#X text 51 37 start/stop writing visulisation data;
#X msg -54 238 symbol gyro_x;
#X msg 54 236 symbol gyro_y;
#X msg 162 236 symbol gyro_z;
#X obj 199 263 r gyro_z;
#X obj 162 315 tabwrite gyro_z;
#X obj -17 264 r gyro_x;
#X obj -54 315 tabwrite gyro_x;
#X obj 91 265 r gyro_y;
#X obj 54 315 tabwrite gyro_y;
#X obj 21 4 inlet;
#X obj 54 139 geps.listproc;
#X obj -54 139 geps.listproc;
#X obj 162 139 geps.listproc;
#X obj 54 289 geps.listproc;
#X obj -54 289 geps.listproc;
#X obj 162 289 geps.listproc;
#X connect 0 0 3 0;
#X connect 0 0 5 0;
#X connect 0 0 8 0;
#X connect 0 0 13 0;
#X connect 0 0 14 0;
#X connect 0 0 15 0;
#X connect 1 0 24 1;
#X connect 2 0 0 0;
#X connect 3 0 24 0;
#X connect 5 0 23 0;
#X connect 6 0 23 1;
#X connect 8 0 25 0;
#X connect 9 0 25 1;
#X connect 11 0 23 2;
#X connect 11 0 24 2;
#X connect 11 0 25 2;
#X connect 11 0 26 2;
#X connect 11 0 27 2;
#X connect 11 0 28 2;
#X connect 13 0 27 0;
#X connect 14 0 26 0;
#X connect 15 0 28 0;
#X connect 16 0 28 1;
#X connect 18 0 27 1;
#X connect 20 0 26 1;
#X connect 22 0 11 0;
#X connect 23 0 7 0;
#X connect 24 0 4 0;
#X connect 25 0 10 0;
#X connect 26 0 21 0;
#X connect 27 0 19 0;
#X connect 28 0 17 0;
#X restore 40 70 pd visualize;
#X obj 244 264 spigot;
#X obj 225 234 spigot;
#X obj 207 204 spigot;
#X obj 188 174 spigot;
#X obj 170 144 spigot;
#X obj 151 114 spigot;
#X obj 133 84 spigot;
#X obj 109 53 tgl 15 0 empty empty empty 17 7 0 10 -262144 -1 -1 0
1;
#X obj 89 53 tgl 15 0 empty empty empty 17 7 0 10 -262144 -1 -1 0 1
;
#X obj 222 362 geps.scale;
#X obj 240 412 geps.scale;
#X obj 259 462 geps.scale;
#X obj 188 462 geps.scale;
#X obj 170 412 geps.scale;
#X obj 322 70 sel 65535;
#X obj 322 95 t b b b;
#X obj 309 196 accum;
#X obj 360 147 t b b;
#X msg 360 169 set 0;
#X obj 322 122 timer;
#X obj 360 122 counter 100;
#X obj 309 218 / 100;
#X obj 23 191 change;
#X obj 23 221 change;
#X obj 23 251 change;
#X obj 23 281 change;
#X obj 23 311 change;
#X obj 23 341 change;
#X obj 23 466 accum 0;
#X obj 23 393 0;
#X obj 23 439 prepend set;
#X obj 51 393 t b;
#X obj 51 413 1;
#X obj 23 366 t b b;
#X obj 91 483 == 6;
#X obj 23 161 sel 65535;
#X obj 23 736 s serial.seqstat;
#X obj 10 6 r serial.checkval;
#X obj 309 241 s serial.latency;
#X obj 91 607 counter;
#X obj 23 510 r serial.checkval;
#X obj 23 532 sel 0 1;
#X obj 110 559 0;
#X obj 62 666 accum 0;
#X msg 42 607 set 0;
#X obj 23 683 /;
#X obj 23 641 f;
#X obj 23 577 t b b b;
#X obj 23 712 > 1;
#X obj 91 584 t b f;
#X obj 10 26 r sensorvisualize;
#X text 23 759 detect sequencing errors;
#X text 310 259 calculate latency;
#X obj 189 509 comment 0 10 monaco ? 0 0 0 0 scale raw sensor data
;
#X connect 0 0 2 0;
#X connect 1 0 2 1;
#X connect 2 0 24 0;
#X connect 2 0 31 0;
#X connect 2 0 39 0;
#X connect 2 1 30 0;
#X connect 2 1 18 0;
#X connect 2 2 29 0;
#X connect 2 2 38 0;
#X connect 2 3 28 0;
#X connect 2 3 37 0;
#X connect 2 4 27 0;
#X connect 2 4 34 0;
#X connect 2 5 26 0;
#X connect 2 5 35 0;
#X connect 2 6 25 0;
#X connect 2 6 36 0;
#X connect 3 0 47 0;
#X connect 4 0 48 0;
#X connect 5 0 49 0;
#X connect 6 0 60 0;
#X connect 7 0 50 0;
#X connect 8 0 51 0;
#X connect 9 0 52 0;
#X connect 18 0 12 0;
#X connect 25 0 9 0;
#X connect 26 0 8 0;
#X connect 27 0 7 0;
#X connect 28 0 5 0;
#X connect 29 0 4 0;
#X connect 30 0 3 0;
#X connect 31 0 6 0;
#X connect 32 0 31 1;
#X connect 32 0 30 1;
#X connect 32 0 29 1;
#X connect 32 0 28 1;
#X connect 32 0 27 1;
#X connect 32 0 26 1;
#X connect 32 0 25 1;
#X connect 33 0 24 1;
#X connect 34 0 15 0;
#X connect 35 0 16 0;
#X connect 36 0 17 0;
#X connect 37 0 14 0;
#X connect 38 0 13 0;
#X connect 39 0 40 0;
#X connect 40 0 44 0;
#X connect 40 1 44 1;
#X connect 40 2 45 0;
#X connect 41 0 46 0;
#X connect 42 0 43 0;
#X connect 42 1 41 0;
#X connect 43 0 41 0;
#X connect 44 0 41 1;
#X connect 45 3 42 0;
#X connect 46 0 63 0;
#X connect 47 0 56 0;
#X connect 48 0 56 0;
#X connect 49 0 56 0;
#X connect 50 0 56 0;
#X connect 51 0 56 0;
#X connect 52 0 56 0;
#X connect 53 0 59 0;
#X connect 54 0 55 0;
#X connect 55 0 53 0;
#X connect 56 0 57 0;
#X connect 57 0 53 1;
#X connect 58 0 54 0;
#X connect 58 1 53 0;
#X connect 59 0 74 0;
#X connect 60 0 58 0;
#X connect 62 0 32 0;
#X connect 64 0 71 1;
#X connect 65 0 66 0;
#X connect 66 0 72 0;
#X connect 66 1 67 0;
#X connect 67 0 64 2;
#X connect 68 0 70 1;
#X connect 69 0 68 0;
#X connect 70 0 73 0;
#X connect 71 0 70 0;
#X connect 72 0 71 0;
#X connect 72 1 69 0;
#X connect 72 2 68 0;
#X connect 73 0 61 0;
#X connect 74 0 64 0;
#X connect 74 1 68 1;
#X connect 75 0 33 0;
#X restore 16 121 pd parse;
#X obj 15 144 geps.sensormath;
#X obj 16 98 geps.serialport;
#X connect 2 0 53 0;
#X connect 2 0 42 0;
#X connect 2 1 52 0;
#X connect 2 1 43 0;
#X connect 2 2 50 0;
#X connect 2 2 42 0;
#X connect 3 0 2 0;
#X connect 4 0 2 0;
#X connect 5 0 2 0;
#X connect 7 0 41 0;
#X connect 9 0 7 0;
#X connect 10 0 30 0;
#X connect 10 0 31 0;
#X connect 12 0 11 0;
#X connect 13 0 14 0;
#X connect 14 0 4 0;
#X connect 14 1 3 0;
#X connect 15 0 30 0;
#X connect 15 0 31 0;
#X connect 16 0 11 0;
#X connect 17 0 34 0;
#X connect 18 0 30 0;
#X connect 18 1 5 0;
#X connect 20 0 19 0;
#X connect 20 0 49 0;
#X connect 22 0 23 0;
#X connect 22 0 48 0;
#X connect 24 0 26 0;
#X connect 24 0 47 0;
#X connect 26 0 28 0;
#X connect 26 1 27 0;
#X connect 26 2 25 0;
#X connect 28 0 29 0;
#X connect 30 0 32 0;
#X connect 30 1 12 0;
#X connect 30 1 38 0;
#X connect 32 0 51 0;
#X connect 33 0 18 0;
#X connect 33 1 32 1;
#X connect 34 0 33 0;
#X connect 34 1 35 0;
#X connect 35 0 39 0;
#X connect 35 1 37 0;
#X connect 37 0 40 0;
#X connect 38 0 16 0;
#X connect 41 0 8 0;
#X connect 42 0 41 1;
#X connect 43 0 41 1;
#X connect 44 0 24 0;
#X connect 44 1 22 0;
#X connect 44 2 20 0;
#X connect 45 0 44 0;
#X connect 46 0 44 1;
#X connect 55 0 26 0;
#X connect 58 0 56 0;
#X connect 58 1 56 1;
#X coords 0 -1 1 1 140 80 1 1 1;
#X restore 13 7 pd serialCheck;
#N canvas 575 400 639 333 controls 0;
#X obj 0 0 cnv 15 140 210 empty empty CONTROLS 12 12 0 12 -203904 -45076
0;
#X obj 12 30 pddp/dsp;
#X msg 159 108 \; pd-sensordisplay vis \$1 \; sensorvisualize \$1 \;
;
#X text 35 90 plot sensor data;
#X obj 12 90 tgl 18 0 get-rid-of-the-intlet-2 get-rid-of-the-outlet-2
empty 17 7 0 10 -232576 -1 -45076 0 1;
#X obj 12 60 tgl 18 0 perform-toggle-snd perform-toggle-rcv empty 17
7 0 10 -261682 -260097 -45076 0 1;
#X obj 11 220 key;
#X obj 11 264 1;
#X obj 11 287 s perform-toggle-rcv;
#X obj 42 264 0;
#X text 35 60 perform (§/°);
#X obj 11 242 sel 167 176;
#X obj 158 219 key;
#X obj 158 241 sel 27;
#X obj 158 286 s pd;
#X msg 158 263 dsp 0;
#X obj 238 219 key;
#X text 187 218 esc;
#X text 38 219 § °;
#X text 267 217 <;
#X obj 238 241 sel 60;
#X obj 238 286 s serial.reset;
#X obj 12 180 bng 18 250 50 0 empty empty empty 17 7 0 10 -262144 -232576
-1;
#X text 35 150 mixer;
#X text 35 180 serial setup;
#X obj 12 150 bng 18 250 50 0 empty empty empty 17 7 0 10 -262144 -232576
-1;
#X msg 159 168 \; pd-mixer vis 1 \;;
#X obj 12 120 bng 18 250 50 0 empty empty empty 17 7 0 10 -262144 -232576
-1;
#X text 35 120 show settings;
#X msg 340 138 \; pd-settings vis 1 \;;
#N canvas 67 22 708 688 settings 0;
#X msg 323 326 \; mixer.ch1 time 10 \, gain 127;
#X msg 20 263 \; mixer.ch1 time 10 \, gain 0;
#X msg 20 303 \; mixer.ch2 time 10 \, gain 0;
#X msg 323 366 \; mixer.ch2 time 10 \, gain 127;
#X msg 343 406 \; mixer.ch3 time 10 \, gain 127;
#X msg 20 343 \; mixer.ch3 time 10 \, gain 0;
#X msg 323 286 \; mixer.ch0 time 10 \, gain 127;
#X msg 20 223 \; mixer.ch0 time 10 \, gain 0;
#X msg 343 446 \; mixer.ch4 time 10 \, gain 120;
#X msg 20 383 \; mixer.ch4 time 10 \, gain 0;
#X msg 40 502 \; mixer.summing type 0 \, factor 1;
#X msg 40 463 \; mixer.summing type 1 \, factor 7;
#X text 253 509 clip;
#X text 253 469 tanh;
#X obj 20 193 loadbang;
#X msg 20 423 \; mixer.summing type 1 \, factor 2;
#X msg 436 210 \; pd dsp 1;
#X msg 130 171 \; pd dsp 0;
#X obj 172 62 s sp-dsp;
#X msg 172 40 0;
#X msg 205 40 1;
#X obj 172 19 loadbang;
#X text 239 39 turn off DSP of instruments;
#X obj 22 15 r perform-toggle-snd;
#X obj 22 38 sel 1 0;
#X obj 41 64 s perform-stop;
#X obj 22 85 s perform-start;
#X obj 574 176 r perform-stop;
#X obj 20 169 r perform-stop;
#X obj 323 170 r perform-start;
#X obj 323 238 t b b b b;
#X msg 544 282 switch \$1;
#X msg 544 562 switch \$1;
#X obj 574 262 0;
#X obj 544 262 1;
#X obj 574 542 0;
#X obj 544 542 1;
#X obj 323 193 t b b;
#X obj 323 215 delay 100;
#X obj 544 303 s geps.transients;
#X obj 544 583 s geps.freezer;
#X obj 544 653 s geps.reverb;
#X obj 544 513 s geps.fbnetwork;
#X obj 544 443 s geps.delayline;
#X obj 544 373 s geps.granulator;
#X msg 620 282 material \$1;
#X msg 620 260 0;
#X msg 653 260 1;
#X obj 18 139 comment 0 14 Monaco ? 0 0 0 0 Initial Settings;
#X obj 322 139 comment 0 14 Monaco ? 0 0 0 0 Performance;
#X obj 542 139 comment 0 14 Monaco ? 0 0 0 0 Modules;
#X obj 71 38 loadbang;
#X obj 566 15 declare -lib cyclone;
#X connect 14 0 7 0;
#X connect 14 0 1 0;
#X connect 14 0 2 0;
#X connect 14 0 5 0;
#X connect 14 0 9 0;
#X connect 14 0 15 0;
#X connect 19 0 18 0;
#X connect 20 0 18 0;
#X connect 21 0 19 0;
#X connect 23 0 24 0;
#X connect 24 0 26 0;
#X connect 24 1 25 0;
#X connect 27 0 33 0;
#X connect 27 0 35 0;
#X connect 28 0 7 0;
#X connect 28 0 1 0;
#X connect 28 0 2 0;
#X connect 28 0 5 0;
#X connect 28 0 9 0;
#X connect 29 0 37 0;
#X connect 30 0 0 0;
#X connect 30 0 6 0;
#X connect 30 0 3 0;
#X connect 30 3 34 0;
#X connect 31 0 39 0;
#X connect 32 0 40 0;
#X connect 33 0 31 0;
#X connect 34 0 31 0;
#X connect 35 0 32 0;
#X connect 36 0 32 0;
#X connect 37 0 38 0;
#X connect 37 1 16 0;
#X connect 38 0 30 0;
#X connect 45 0 39 0;
#X connect 46 0 45 0;
#X connect 47 0 45 0;
#X connect 51 0 25 0;
#X restore 160 2 pd settings;
#X msg 340 198 \; serialport vis 1;
#X connect 4 0 2 0;
#X connect 6 0 11 0;
#X connect 7 0 8 0;
#X connect 9 0 8 0;
#X connect 11 0 7 0;
#X connect 11 1 9 0;
#X connect 12 0 13 0;
#X connect 13 0 15 0;
#X connect 15 0 14 0;
#X connect 16 0 20 0;
#X connect 20 0 21 0;
#X connect 22 0 31 0;
#X connect 25 0 26 0;
#X connect 27 0 29 0;
#X coords 0 -1 1 1 140 210 1 0 0;
#X restore 13 99 pd controls;
#X obj 210 292 dac~ 1 2;
#N canvas 4 22 766 678 mixer 0;
#X obj 192 157 vsl 15 128 0 127 0 0 empty empty empty 0 -9 0 10 -262144
-1 -1 0 1;
#X obj 192 324 pack 1 10;
#X obj 209 274 nbx 5 14 -1e+37 1e+37 0 0 empty empty empty 0 -8 0 10
-262144 -1 -1 0 256;
#X obj 177 647 outlet~;
#X obj 177 374 *~;
#X obj 257 373 *~;
#X obj 573 631 writesf~ 2;
#X msg 573 586 start;
#X msg 612 586 stop;
#X msg 573 609 open -bytes 3 /tmp/rec3.wav;
#X obj 17 403 tanh~;
#X obj 388 597 vline~;
#X obj 409 548 loadbang;
#X msg 409 573 1 100;
#X obj 257 647 outlet~;
#X obj 177 614 *~;
#X obj 257 614 *~;
#X obj 97 403 tanh~;
#X obj 192 299 / 127;
#X obj 388 526 r mixer.main-gain;
#X obj 17 374 *~;
#X obj 97 374 *~;
#X obj 32 157 vsl 15 128 0 127 0 0 empty empty empty 0 -9 0 10 -262144
-1 -1 0 1;
#X obj 32 324 pack 1 10;
#X obj 49 274 nbx 5 14 -1e+37 1e+37 0 0 empty empty empty 0 -8 0 10
-262144 -1 -1 0 256;
#X obj 32 299 / 127;
#X obj 322 157 vsl 15 128 0 127 0 0 empty empty empty 0 -9 0 10 -262144
-1 -1 0 1;
#X obj 322 324 pack 1 10;
#X obj 339 274 nbx 5 14 -1e+37 1e+37 0 0 empty empty empty 0 -8 0 10
-262144 -1 -1 0 256;
#X obj 307 374 *~;
#X obj 387 373 *~;
#X obj 322 299 / 127;
#X obj 452 157 vsl 15 128 0 127 0 0 empty empty empty 0 -9 0 10 -262144
-1 -1 0 1;
#X obj 452 324 pack 1 10;
#X obj 469 274 nbx 5 14 -1e+37 1e+37 0 0 empty empty empty 0 -8 0 10
-262144 -1 -1 0 256;
#X obj 437 374 *~;
#X obj 517 373 *~;
#X obj 452 299 / 127;
#X obj 32 348 vline~;
#X obj 192 348 vline~;
#X obj 322 348 vline~;
#X obj 452 348 vline~;
#X obj 582 157 vsl 15 128 0 127 0 0 empty empty empty 0 -9 0 10 -262144
-1 -1 0 1;
#X obj 582 324 pack 1 10;
#X obj 599 274 nbx 5 14 -1e+37 1e+37 0 0 empty empty empty 0 -8 0 10
-262144 -1 -1 0 256;
#X obj 567 374 *~;
#X obj 647 373 *~;
#X obj 582 299 / 127;
#X obj 582 348 vline~;
#X obj 590 134 route gain time;
#X obj 590 114 r mixer.ch4;
#X obj 460 134 route gain time;
#X obj 330 134 route gain time;
#X obj 200 134 route gain time;
#X obj 40 134 route gain time;
#X obj 40 114 r mixer.ch0;
#X obj 200 114 r mixer.ch1;
#X obj 330 114 r mixer.ch2;
#X obj 460 114 r mixer.ch3;
#X text 16 10 GePS Audio Mixer;
#X obj 177 38 cnv 15 120 24 empty empty CHANNEL-01 12 12 0 12 -108864
-262144 0;
#X obj 307 38 cnv 15 120 24 empty empty CHANNEL-02 12 12 0 12 -108864
-262144 0;
#X obj 437 38 cnv 15 120 24 empty empty CHANNEL-03 12 12 0 12 -108864
-262144 0;
#X obj 567 38 cnv 15 120 24 empty empty CHANNEL-04 12 12 0 12 -108864
-262144 0;
#X obj 17 38 cnv 15 120 24 empty empty CATCH-CHANNEL 12 12 0 12 -51264
-262144 0;
#X obj 257 592 geps.summing;
#X obj 326 572 tgl 15 0 empty empty empty 17 7 0 10 -262144 -1 -1 0
1;
#X obj 177 592 geps.summing;
#X obj 177 66 catch~ ch-01.L;
#X obj 257 86 catch~ ch-01.R;
#X obj 307 66 catch~ ch-02.L;
#X obj 387 86 catch~ ch-02.R;
#X obj 437 66 catch~ ch-03.L;
#X obj 517 86 catch~ ch-03.R;
#X obj 567 66 catch~ ch-04.L;
#X obj 647 86 catch~ ch-04.R;
#X obj 17 66 catch~ def.L;
#X obj 97 86 catch~ def.R;
#X connect 0 0 2 0;
#X connect 0 0 18 0;
#X connect 1 0 39 0;
#X connect 4 0 67 0;
#X connect 5 0 65 0;
#X connect 7 0 6 0;
#X connect 8 0 6 0;
#X connect 9 0 6 0;
#X connect 10 0 67 0;
#X connect 11 0 15 1;
#X connect 11 0 16 1;
#X connect 12 0 13 0;
#X connect 13 0 11 0;
#X connect 15 0 3 0;
#X connect 15 0 6 0;
#X connect 16 0 14 0;
#X connect 16 0 6 1;
#X connect 17 0 65 0;
#X connect 18 0 1 0;
#X connect 19 0 11 0;
#X connect 20 0 10 0;
#X connect 21 0 17 0;
#X connect 22 0 24 0;
#X connect 22 0 25 0;
#X connect 23 0 38 0;
#X connect 25 0 23 0;
#X connect 26 0 28 0;
#X connect 26 0 31 0;
#X connect 27 0 40 0;
#X connect 29 0 67 0;
#X connect 30 0 65 0;
#X connect 31 0 27 0;
#X connect 32 0 34 0;
#X connect 32 0 37 0;
#X connect 33 0 41 0;
#X connect 35 0 67 0;
#X connect 36 0 65 0;
#X connect 37 0 33 0;
#X connect 38 0 20 1;
#X connect 38 0 21 1;
#X connect 39 0 5 1;
#X connect 39 0 4 1;
#X connect 40 0 30 1;
#X connect 40 0 29 1;
#X connect 41 0 36 1;
#X connect 41 0 35 1;
#X connect 42 0 44 0;
#X connect 42 0 47 0;
#X connect 43 0 48 0;
#X connect 45 0 67 0;
#X connect 46 0 65 0;
#X connect 47 0 43 0;
#X connect 48 0 46 1;
#X connect 48 0 45 1;
#X connect 49 0 42 0;
#X connect 49 1 43 1;
#X connect 50 0 49 0;
#X connect 51 0 32 0;
#X connect 51 1 33 1;
#X connect 52 0 26 0;
#X connect 52 1 27 1;
#X connect 53 0 0 0;
#X connect 53 1 1 1;
#X connect 54 0 22 0;
#X connect 54 1 23 1;
#X connect 55 0 54 0;
#X connect 56 0 53 0;
#X connect 57 0 52 0;
#X connect 58 0 51 0;
#X connect 65 0 16 0;
#X connect 66 0 65 1;
#X connect 66 0 67 1;
#X connect 67 0 15 0;
#X connect 68 0 4 0;
#X connect 69 0 5 0;
#X connect 70 0 29 0;
#X connect 71 0 30 0;
#X connect 72 0 35 0;
#X connect 73 0 36 0;
#X connect 74 0 45 0;
#X connect 75 0 46 0;
#X connect 76 0 20 0;
#X connect 77 0 21 0;
#X restore 210 269 pd mixer;
#X obj 13 323 geps.version;
#X connect 1 0 0 1;
#X connect 2 0 0 0;
#X connect 3 0 0 2;
#X connect 10 0 9 0;
#X connect 10 1 9 1;
