#N canvas 367 163 427 406 10;
#X obj 29 167 expr (abs($f1) + abs($f2) + abs($f3)) * 0.33;
#X obj 83 358 s gyrodelta_all;
#X obj 29 24 r gyro_x;
#X obj 290 25 r gyro_z;
#X obj 159 25 r gyro_y;
#X obj 29 214 s gyro_all;
#X obj 214 336 geps.transTrigger;
#X obj 214 358 s t.flick;
#X obj 83 306 t f f;
#X obj 56 117 s gyrodelta_x;
#X obj 186 117 s gyrodelta_y;
#X obj 317 117 s gyrodelta_z;
#X obj 56 75 geps.delta;
#X obj 186 75 geps.delta;
#X obj 317 75 geps.delta;
#X obj 29 49 t f f;
#X obj 159 49 t f f;
#X obj 290 48 t f f;
#X obj 56 96 t f f;
#X obj 186 96 t f f;
#X obj 56 136 comment 0 10 monaco ? 0 255 0 0 gyrodelta_x;
#X obj 186 136 comment 0 10 monaco ? 0 0 128 0 gyrodelta_y;
#X obj 315 136 comment 0 10 monaco ? 0 0 0 255 gyrodelta_z;
#X obj 82 376 comment 0 10 monaco ? 0 128 0 128 gyrodelta_all;
#X obj 28 232 comment 0 10 monaco ? 0 200 0 200 gyro_all;
#X obj 213 377 comment 0 10 monaco ? 0 160 160 0 t.flick;
#X obj 316 96 t f f;
#X obj 83 260 expr (abs($f1) + abs($f2) + abs($f3)) * 0.33;
#X obj 29 191 * 2.8;
#X obj 83 283 * 12;
#X connect 0 0 28 0;
#X connect 2 0 15 0;
#X connect 3 0 17 0;
#X connect 4 0 16 0;
#X connect 6 0 7 0;
#X connect 8 0 1 0;
#X connect 8 1 6 0;
#X connect 12 0 18 0;
#X connect 13 0 19 0;
#X connect 14 0 26 0;
#X connect 15 0 0 0;
#X connect 15 1 12 0;
#X connect 16 0 0 1;
#X connect 16 1 13 0;
#X connect 17 0 0 2;
#X connect 17 1 14 0;
#X connect 18 0 9 0;
#X connect 18 1 27 0;
#X connect 19 0 10 0;
#X connect 19 1 27 1;
#X connect 26 0 11 0;
#X connect 26 1 27 2;
#X connect 27 0 29 0;
#X connect 28 0 5 0;
#X connect 29 0 8 0;
