#N canvas 426 326 450 300 10;
#X obj 12 -195 - 32768;
#X obj 12 -218 inlet;
#X obj 12 -151 outlet;
#X text 73 -219 GePS sensor value scaling;
#X obj 12 -173 / 32768;
#X connect 0 0 4 0;
#X connect 1 0 0 0;
#X connect 4 0 2 0;
