#N canvas 81 395 265 209 10;
#X obj 12 12 r gyro_all;
#X obj 12 34 * 1;
#X obj 12 56 * 0.8;
#X obj 107 129 tgl 15 0 empty empty empty 17 7 0 10 -262144 -1 -1 0
1;
#X obj 84 12 loadbang;
#X obj 12 152 geps.listproc;
#X msg 84 34 4;
#X msg 114 34 20;
#X msg 12 129 symbol slide;
#X obj 12 178 tabwrite slide;
#X obj 109 178 outlet;
#X obj 12 100 t b f f;
#X obj 107 109 r toggle_slidevisual;
#X obj 12 78 slide.cs 4 20;
#X connect 0 0 1 0;
#X connect 0 0 1 1;
#X connect 1 0 2 0;
#X connect 2 0 13 0;
#X connect 3 0 5 2;
#X connect 4 0 6 0;
#X connect 4 0 7 0;
#X connect 5 0 9 0;
#X connect 6 0 13 1;
#X connect 7 0 13 2;
#X connect 8 0 5 0;
#X connect 11 0 8 0;
#X connect 11 1 5 1;
#X connect 11 2 10 0;
#X connect 12 0 3 0;
#X connect 13 0 11 0;
