#N canvas 477 441 371 295 10;
#X obj 69 47 tgl 15 0 empty empty empty 17 7 0 10 -262144 -1 -1 0 1
;
#X obj 96 162 random 255;
#X obj 69 93 counter 6;
#X msg 120 117 255;
#X msg 156 117 255;
#X obj 167 162 random 255;
#X obj 69 117 sel 6;
#X obj 120 206 s testvalues;
#X obj 96 140 t b;
#X obj 11 184 spigot;
#X obj 44 47 tgl 15 0 empty empty empty 17 7 0 10 -262144 -1 -1 0 1
;
#X obj 11 206 print testing;
#X obj 11 162 r testvalues;
#X obj 69 69 metro 5;
#X text 168 61 GePS: Sensor Data Simulator;
#X obj 69 19 inlet;
#X obj 108 19 inlet;
#X obj 148 19 inlet;
#X connect 0 0 13 0;
#X connect 1 0 7 0;
#X connect 2 0 6 0;
#X connect 2 3 3 0;
#X connect 2 3 4 0;
#X connect 3 0 7 0;
#X connect 4 0 7 0;
#X connect 5 0 7 0;
#X connect 6 1 8 0;
#X connect 8 0 5 0;
#X connect 8 0 1 0;
#X connect 9 0 11 0;
#X connect 10 0 9 1;
#X connect 12 0 9 0;
#X connect 13 0 2 0;
#X connect 15 0 0 0;
#X connect 16 0 13 1;
#X connect 17 0 10 0;
