#N canvas 520 333 363 222 10;
#X obj 11 132 textfile;
#X obj 11 198 s gepsversion;
#X obj 11 66 loadbang;
#X msg 38 110 read ../VERSION cr \, rewind;
#X obj 11 154 list trim;
#X obj 0 0 cnv 15 358 60 empty geps-version GePS 12 12 0 12 -261682
-66577 0;
#X obj 11 88 t b b;
#X obj 76 67 bng 15 250 50 0 empty empty empty 17 7 0 10 -262144 -1
-1;
#X obj 213 65 namecanvas gepsversion;
#X text 11 21 PureData performance patcher;
#X obj 11 176 prepend text 11 38;
#X connect 0 0 4 0;
#X connect 2 0 6 0;
#X connect 3 0 0 0;
#X connect 4 0 10 0;
#X connect 6 0 0 0;
#X connect 6 1 3 0;
#X connect 7 0 6 0;
#X connect 10 0 1 0;
#X coords 0 -1 1 1 358 60 2 0 0;
