#N canvas 963 343 586 441 10;
#X msg 10 38 devices;
#X msg 68 38 ports;
#X msg 10 10 open 5;
#X msg 62 10 close;
#X obj 10 69 comport 5 38400;
#N canvas 113 129 918 701 receive 0;
#X obj 3 -84 inlet;
#X obj 114 -84 inlet;
#N canvas 659 22 501 582 SerialByteParse7 0;
#X obj 55 -11 inlet;
#X obj 133 -11 inlet;
#X obj 133 17 bng 15 250 50 0 empty empty empty 17 7 0 10 -262144 -1
-1;
#X obj 55 403 cycle 7;
#X obj 55 451 sel 65535;
#X obj 55 17 t f f;
#X obj 55 279 cycle 2;
#X obj 94 304 << 8;
#X obj 55 331 +;
#X msg 0 249 set 0;
#X obj 82 45 match 255 255;
#X obj 55 512 outlet;
#X obj 105 512 outlet;
#X obj 155 512 outlet;
#X obj 205 512 outlet;
#X obj 255 512 outlet;
#X obj 305 512 outlet;
#X obj 5 512 outlet;
#X obj -34 -11 r testvalues;
#X obj 82 86 onebang 1;
#X obj 55 156 spigot;
#X obj -17 157 spigot;
#X obj 40 214 1;
#X obj 16 214 0;
#X obj -17 191 t f b b b;
#X obj 82 129 1;
#X obj 106 129 0;
#X obj 82 107 t b b;
#X obj 82 65 t b;
#X obj 55 486 float;
#X obj 105 486 float;
#X obj 155 486 float;
#X obj 205 486 float;
#X obj 255 486 float;
#X obj 305 486 float;
#X text 224 -12 GePS: Serial Byte Parsing;
#X obj 97 330 tgl 15 0 empty empty empty 17 7 0 10 -262144 -1 -1 0
1;
#X obj 64 357 spigot;
#X floatatom 64 379 5 0 0 0 - - -;
#X connect 0 0 5 0;
#X connect 1 0 2 0;
#X connect 2 0 19 1;
#X connect 3 0 17 0;
#X connect 3 0 4 0;
#X connect 3 1 29 1;
#X connect 3 2 30 1;
#X connect 3 3 31 1;
#X connect 3 4 32 1;
#X connect 3 5 33 1;
#X connect 3 6 34 1;
#X connect 4 0 29 0;
#X connect 4 0 30 0;
#X connect 4 0 31 0;
#X connect 4 0 32 0;
#X connect 4 0 33 0;
#X connect 4 0 34 0;
#X connect 5 0 20 0;
#X connect 5 0 21 0;
#X connect 5 1 10 0;
#X connect 6 0 8 0;
#X connect 6 1 7 0;
#X connect 7 0 8 1;
#X connect 8 0 3 0;
#X connect 8 0 37 0;
#X connect 9 0 3 0;
#X connect 9 0 6 0;
#X connect 10 0 28 0;
#X connect 18 0 5 0;
#X connect 19 0 27 0;
#X connect 20 0 6 0;
#X connect 21 0 24 0;
#X connect 22 0 20 1;
#X connect 23 0 21 1;
#X connect 24 0 6 0;
#X connect 24 1 9 0;
#X connect 24 2 23 0;
#X connect 24 3 22 0;
#X connect 25 0 21 1;
#X connect 26 0 20 1;
#X connect 27 0 25 0;
#X connect 27 1 26 0;
#X connect 28 0 19 0;
#X connect 29 0 11 0;
#X connect 30 0 12 0;
#X connect 31 0 13 0;
#X connect 32 0 14 0;
#X connect 33 0 15 0;
#X connect 34 0 16 0;
#X connect 36 0 37 1;
#X connect 37 0 38 0;
#X restore 3 -47 pd SerialByteParse7;
#X floatatom 21 75 5 0 0 0 - - -;
#X floatatom 40 105 5 0 0 0 - - -;
#X floatatom 58 135 5 0 0 0 - - -;
#X floatatom 3 45 5 0 0 0 - - -;
#X floatatom 77 165 5 0 0 0 - - -;
#X floatatom 95 195 5 0 0 0 - - -;
#X floatatom 114 225 5 0 0 0 - - -;
#X text -35 43 start;
#X text -35 73 a_x;
#X obj 21 284 s accel_x;
#X obj 40 334 s accel_y;
#X obj 58 384 s accel_z;
#X obj 92 284 s gyro_x;
#X obj 110 334 s gyro_y;
#X obj 129 384 s gyro_z;
#X obj 162 284 s gyrodelta_x;
#X obj 182 334 s gyrodelta_y;
#X obj 202 384 s gyrodelta_z;
#X obj 21 262 geps.scale;
#X obj 162 262 geps.delta;
#X obj 182 312 geps.delta;
#X obj 202 362 geps.delta;
#X obj 92 262 geps.scale;
#X obj 110 312 geps.scale;
#X obj 129 362 geps.scale;
#X obj 58 362 geps.scale;
#X obj 40 312 geps.scale;
#X text -35 163 g_x;
#X text -35 193 g_y;
#X text -35 223 g_z;
#X text -35 103 a_y;
#X text -35 133 a_z;
#N canvas 0 22 450 278 (subpatch) 0;
#X array accel_x 100 float 4;
#X coords 0 1 99 -1 200 140 1 0 0;
#X restore 369 -62 graph;
#N canvas 643 170 425 339 visualize 0;
#X obj -54 61 t b;
#X obj -17 114 r accel_x;
#X obj -54 4 inlet;
#X msg -54 88 symbol accel_x;
#X obj -54 165 tabwrite accel_x;
#X msg 54 86 symbol accel_y;
#X obj 91 115 r accel_y;
#X obj 54 165 tabwrite accel_y;
#X msg 162 86 symbol accel_z;
#X obj 199 113 r accel_z;
#X obj 162 165 tabwrite accel_z;
#X obj 21 35 tgl 15 0 empty empty empty 17 7 0 10 -262144 -1 -1 0 1
;
#X text 51 37 start/stop writing visulisation data;
#X msg -54 238 symbol gyro_x;
#X msg 54 236 symbol gyro_y;
#X msg 162 236 symbol gyro_z;
#X obj 199 263 r gyro_z;
#X obj 162 315 tabwrite gyro_z;
#X obj -17 264 r gyro_x;
#X obj -54 315 tabwrite gyro_x;
#X obj 91 265 r gyro_y;
#X obj 54 315 tabwrite gyro_y;
#X obj 21 4 inlet;
#X obj 54 139 geps.listproc;
#X obj -54 139 geps.listproc;
#X obj 162 139 geps.listproc;
#X obj 54 289 geps.listproc;
#X obj -54 289 geps.listproc;
#X obj 162 289 geps.listproc;
#X connect 0 0 3 0;
#X connect 0 0 5 0;
#X connect 0 0 8 0;
#X connect 0 0 13 0;
#X connect 0 0 14 0;
#X connect 0 0 15 0;
#X connect 1 0 24 1;
#X connect 2 0 0 0;
#X connect 3 0 24 0;
#X connect 5 0 23 0;
#X connect 6 0 23 1;
#X connect 8 0 25 0;
#X connect 9 0 25 1;
#X connect 11 0 23 2;
#X connect 11 0 24 2;
#X connect 11 0 25 2;
#X connect 11 0 26 2;
#X connect 11 0 27 2;
#X connect 11 0 28 2;
#X connect 13 0 27 0;
#X connect 14 0 26 0;
#X connect 15 0 28 0;
#X connect 16 0 28 1;
#X connect 18 0 27 1;
#X connect 20 0 26 1;
#X connect 22 0 11 0;
#X connect 23 0 7 0;
#X connect 24 0 4 0;
#X connect 25 0 10 0;
#X connect 26 0 21 0;
#X connect 27 0 19 0;
#X connect 28 0 17 0;
#X restore -90 -30 pd visualize;
#N canvas 0 22 450 278 (subpatch) 0;
#X array accel_y 100 float 4;
#X coords 0 1 99 -1 200 140 1 0 0;
#X restore 369 93 graph;
#N canvas 0 22 450 278 (subpatch) 0;
#X array accel_z 100 float 4;
#X coords 0 1 99 -1 200 140 1 0 0;
#X restore 370 249 graph;
#N canvas 0 22 450 278 (subpatch) 0;
#X array gyro_x 100 float 4;
#X coords 0 1 99 -1 200 140 1 0 0;
#X restore 589 -62 graph;
#N canvas 0 22 450 278 (subpatch) 0;
#X array gyro_y 100 float 4;
#X coords 0 1 99 -1 200 140 1 0 0;
#X restore 589 93 graph;
#N canvas 0 22 450 278 (subpatch) 0;
#X array gyro_z 100 float 4;
#X coords 0 1 99 -1 200 140 1 0 0;
#X restore 590 249 graph;
#X obj 114 164 spigot;
#X obj 95 134 spigot;
#X obj 77 104 spigot;
#X obj 58 74 spigot;
#X obj 40 44 spigot;
#X obj 21 14 spigot;
#X obj 3 -16 spigot;
#X obj -21 -47 tgl 15 0 empty empty empty 17 7 0 10 -262144 -1 -1 0
1;
#X obj -41 -47 tgl 15 0 empty empty empty 17 7 0 10 -262144 -1 -1 0
1;
#X obj -63 455 expr (abs($f1) + abs($f2) + abs($f3)) * 0.33;
#X obj -63 544 expr abs($f1 + $f2);
#X obj -63 478 s gyro_all;
#X obj -63 565 s gyrodelta_all;
#X obj -63 432 r gyro_x;
#X obj 198 433 r gyro_z;
#X obj 67 433 r gyro_y;
#X obj -63 522 r gyrodelta_x;
#X obj 48 522 r gyrodelta_y;
#N canvas 0 22 450 278 (subpatch) 0;
#X array slide 100 float 4;
#X coords 0 1 99 -1 200 140 1 0 0;
#X restore 590 411 graph;
#X obj 591 579 s toggle_slidevisual;
#X obj 591 559 tgl 15 0 empty empty empty 17 7 0 10 -262144 -1 -1 0
1;
#X connect 0 0 2 0;
#X connect 1 0 2 1;
#X connect 2 0 36 0;
#X connect 2 0 48 0;
#X connect 2 1 47 0;
#X connect 2 1 21 0;
#X connect 2 2 46 0;
#X connect 2 2 29 0;
#X connect 2 3 45 0;
#X connect 2 3 28 0;
#X connect 2 4 44 0;
#X connect 2 4 25 0;
#X connect 2 5 43 0;
#X connect 2 5 26 0;
#X connect 2 6 42 0;
#X connect 2 6 27 0;
#X connect 21 0 12 0;
#X connect 22 0 18 0;
#X connect 23 0 19 0;
#X connect 24 0 20 0;
#X connect 25 0 15 0;
#X connect 25 0 22 0;
#X connect 26 0 16 0;
#X connect 26 0 23 0;
#X connect 27 0 17 0;
#X connect 27 0 24 0;
#X connect 28 0 14 0;
#X connect 29 0 13 0;
#X connect 42 0 9 0;
#X connect 43 0 8 0;
#X connect 44 0 7 0;
#X connect 45 0 5 0;
#X connect 46 0 4 0;
#X connect 47 0 3 0;
#X connect 48 0 6 0;
#X connect 49 0 48 1;
#X connect 49 0 47 1;
#X connect 49 0 46 1;
#X connect 49 0 45 1;
#X connect 49 0 44 1;
#X connect 49 0 43 1;
#X connect 49 0 42 1;
#X connect 50 0 36 1;
#X connect 51 0 53 0;
#X connect 52 0 54 0;
#X connect 55 0 51 0;
#X connect 56 0 51 2;
#X connect 57 0 51 1;
#X connect 58 0 52 0;
#X connect 59 0 52 1;
#X connect 62 0 61 0;
#X restore 10 98 pd receive;
#X obj 112 69 t b;
#X obj 12 173 geps.sensorsim;
#X floatatom 52 149 5 0 0 0 - - -;
#X obj 12 149 tgl 15 0 empty empty empty 17 7 0 10 -262144 -1 -1 0
1;
#X obj 93 149 tgl 15 0 empty empty empty 17 7 0 10 -262144 -1 -1 0
1;
#N canvas 1281 509 450 300 emphasize_movement 0;
#X obj 9 11 inlet~ L;
#X obj 9 33 *~ 0.707;
#X obj 9 77 tanh~;
#X obj 9 99 outlet~ L;
#X obj 79 33 *~ 0.707;
#X obj 79 77 tanh~;
#X obj 79 11 inlet~ R;
#X obj 79 99 outlet~ R;
#X obj 168 12 geps.slide;
#X obj 168 34 + 0.6;
#X msg 168 56 \$1 10;
#X obj 168 78 line~ 1;
#X obj 9 55 *~;
#X obj 79 55 *~;
#X connect 0 0 1 0;
#X connect 1 0 12 0;
#X connect 2 0 3 0;
#X connect 4 0 13 0;
#X connect 5 0 7 0;
#X connect 6 0 4 0;
#X connect 8 0 9 0;
#X connect 9 0 10 0;
#X connect 10 0 11 0;
#X connect 11 0 12 1;
#X connect 11 0 13 1;
#X connect 12 0 2 0;
#X connect 13 0 5 0;
#X restore 14 225 pd emphasize_movement;
#X connect 0 0 4 0;
#X connect 1 0 4 0;
#X connect 2 0 4 0;
#X connect 2 0 6 0;
#X connect 3 0 4 0;
#X connect 4 0 5 0;
#X connect 6 0 5 1;
#X connect 8 0 7 1;
#X connect 9 0 7 0;
#X connect 10 0 7 2;
