#N canvas 1037 439 285 211 10;
#X obj 17 12 inlet;
#X obj 17 34 t f f;
#X obj 17 156 expr $f2+(($f1-$f2)/$f3);
#X obj 17 178 outlet;
#X obj 87 131 t f;
#X obj 128 59 >;
#X obj 128 81 sel 1 0;
#X obj 128 103 f \$1;
#X obj 158 103 f \$2;
#X obj 149 12 inlet slide_up;
#X obj 179 42 inlet slide_up;
#X connect 0 0 1 0;
#X connect 1 0 2 0;
#X connect 1 1 5 0;
#X connect 2 0 3 0;
#X connect 2 0 4 0;
#X connect 2 0 5 1;
#X connect 4 0 2 1;
#X connect 5 0 6 0;
#X connect 6 0 7 0;
#X connect 6 1 8 0;
#X connect 7 0 2 2;
#X connect 8 0 2 2;
#X connect 9 0 7 1;
#X connect 10 0 8 1;
